<svg xmlns="http://www.w3.org/2000/svg" width="16" height="20" viewBox="0 0 16 20">
            <g id="Iconly_Bulk_Bookmark" data-name="Iconly/Bulk/Bookmark" transform="translate(-4 -2)">
              <g id="Bookmark" transform="translate(4 2)">
                <path id="Bookmark_2" data-name="Bookmark 2" d="M7.991,4.913,1.5,8.155a1.019,1.019,0,0,1-1.376-.4A1.09,1.09,0,0,1,0,7.258V0C0,.72.406,1.164,1.473,1.661Z" transform="translate(0 11.709)" fill="#c7cad5" opacity="0.4"></path>
                <path id="Bookmark-2" data-name="Bookmark" d="M14.98,20a1.012,1.012,0,0,1-.506-.136L7.991,16.621,1.473,13.37C.4,12.87,0,12.419,0,11.709V3.793A3.322,3.322,0,0,1,1.435.874,6.145,6.145,0,0,1,4.9,0h6.174A6.188,6.188,0,0,1,14.54.874,3.36,3.36,0,0,1,16,3.793V18.967a1.065,1.065,0,0,1-.123.489,1.023,1.023,0,0,1-.616.5A1.012,1.012,0,0,1,14.98,20ZM4.225,6.041a.791.791,0,0,0,0,1.581h7.524a.791.791,0,0,0,0-1.581Z" transform="translate(0)" fill="#f68685"></path>
              </g>
            </g>
          </svg>