<svg t="1639725490258" class="icon" viewBox="0 0 1024 1024" version="1.1" xmlns="http://www.w3.org/2000/svg" p-id="7106" width="200" height="200"><path d="M364.97 408.91m-26.85 0a26.85 26.85 0 1 0 53.7 0 26.85 26.85 0 1 0-53.7 0Z" p-id="7107" fill="#367FFA"></path><path d="M659.02 408.91m-26.85 0a26.85 26.85 0 1 0 53.7 0 26.85 26.85 0 1 0-53.7 0Z" p-id="7108" fill="#367FFA"></path><path d="M878.35 466.7v-0.53-0.33c0-0.11 0-0.29-0.07-0.43s-0.05-0.27-0.09-0.4-0.06-0.23-0.09-0.34-0.09-0.28-0.14-0.42l-0.11-0.31c-0.05-0.14-0.11-0.27-0.17-0.4l-0.15-0.32-0.19-0.35-0.21-0.35-0.18-0.27-0.29-0.39-0.16-0.2-0.36-0.4-0.15-0.15-0.42-0.38-0.16-0.13-0.45-0.33-0.21-0.13-0.45-0.27-0.26-0.14-0.31-0.16-113.32-51.72c-7.12-152.94-25.33-230.38-54.26-230.38-12.6 0-35.08 7.9-85.29 75-69.09-24.19-148.62-24.19-217.72 0-50.23-67.13-72.7-75-85.31-75-28.91 0-47.1 77.08-54.25 230.38l-113 51.62h-0.06l-0.16 0.07-0.11 0.06-0.53 0.28-0.25 0.15-0.39 0.25-0.31 0.23-0.29 0.23-0.33 0.3-0.23 0.23-0.3 0.33-0.21 0.26-0.25 0.34-0.21 0.31-0.19 0.32-0.2 0.37-0.14 0.29-0.18 0.42-0.11 0.29c0 0.14-0.1 0.29-0.14 0.43s-0.06 0.22-0.09 0.34-0.06 0.26-0.09 0.4 0 0.28-0.07 0.43 0 0.22 0 0.33v287.33a93.18 93.18 0 0 0 93.08 93.08h546.45a93.19 93.19 0 0 0 93.09-93.08V466.87c0-0.06 0-0.11-0.01-0.17z m-45-7.86h-71.06q-0.48-17-1.11-33z m-515.52-265.3c6.59 0 27.19 7.14 76 73.32l3.59 4.88 5.67-2.11c68.83-25.58 149-25.6 217.91 0l5.67 2.11 3.59-4.88c48.75-66.17 69.34-73.32 75.94-73.32 11.59 0 30.92 60.57 38.34 219.22a8 8 0 0 0 0.06 1.3q1 21.21 1.66 44.77H277.78q0.67-23.51 1.65-44.66a8 8 0 0 0 0.07-1.5c7.38-158.57 26.72-219.13 38.33-219.13z m-56.13 265.3h-71.09l72.21-33q-0.63 16-1.12 33z m523.57 371.62H238.71a77.09 77.09 0 0 1-77-77V474.9H862.29v278.56a77.1 77.1 0 0 1-77.02 77z" p-id="7109" fill="#367FFA"></path><path d="M634.42 731.89H555.2V565.44a8 8 0 1 0-16.07 0v174.49a8 8 0 0 0 8 8h87.25a8 8 0 0 0 0-16.07zM484.71 557.4h-87.23a8 8 0 0 0-8 8v174.53a8 8 0 1 0 16.07 0v-79.2h71.17v79.2a8 8 0 1 0 16.07 0V565.44a8 8 0 0 0-8.08-8.04z m-8 87.25h-71.2v-71.18h71.17zM779.39 573.47a8 8 0 1 0 0-16.07h-87.21a8 8 0 0 0-8 8v174.53a8 8 0 0 0 8 8h87.21a8 8 0 1 0 0-16.07h-79.17v-71.13h79.17a8 8 0 1 0 0-16.07h-79.17v-71.19zM331.82 573.47a8 8 0 0 0 0-16.07H244.6a8 8 0 0 0-8 8v87.25a8 8 0 0 0 8 8h79.19v71.16H244.6a8 8 0 0 0 0 16.07h87.22a8 8 0 0 0 8-8v-87.19a8 8 0 0 0-8-8h-79.19v-71.22z" p-id="7110" fill="#367FFA"></path></svg>