<svg xmlns="http://www.w3.org/2000/svg" xmlns:xlink="http://www.w3.org/1999/xlink" width="219.856" height="186.782" viewBox="0 0 219.856 186.782">
            <defs>
              <linearGradient id="linear-gradient" x1="0.287" y1="1.049" x2="0.555" y2="0.358" gradientUnits="objectBoundingBox">
                <stop offset="0" stop-color="#a86da8"></stop>
                <stop offset="1" stop-color="#815087"></stop>
              </linearGradient>
              <linearGradient id="linear-gradient-2" x1="0.287" y1="1.049" x2="0.555" y2="0.358" xlink:href="#linear-gradient"></linearGradient>
            </defs>
            <g id="组_35756" data-name="组 35756" transform="translate(428.382 -76.393)">
              <g id="组_35755" data-name="组 35755" transform="translate(-428.382 76.393)">
                <path id="路径_17023" data-name="路径 17023" d="M-236.576,316.279c.012.075.021.149.03.226Z" transform="translate(343.799 -182.179)" fill="#f3dde9" fill-rule="evenodd"></path>
                <path id="路径_17024" data-name="路径 17024" d="M-236.647,315.888c.015.07.028.141.039.214C-236.619,316.029-236.632,315.958-236.647,315.888Z" transform="translate(343.83 -182.006)" fill="#f3dde9" fill-rule="evenodd"></path>
                <path id="路径_17025" data-name="路径 17025" d="M-295.024,277.633c-.171-.064-.341-.129-.509-.2C-295.365,277.5-295.195,277.569-295.024,277.633Z" transform="translate(369.798 -165.05)" fill="#f3dde9" fill-rule="evenodd"></path>
                <path id="路径_17026" data-name="路径 17026" d="M-291.6,278.753c-.154-.041-.312-.084-.472-.13C-291.91,278.668-291.752,278.712-291.6,278.753Z" transform="translate(368.271 -165.573)" fill="#f3dde9" fill-rule="evenodd"></path>
                <path id="路径_17027" data-name="路径 17027" d="M-245.642,287.748c-.017-.015-.03-.029-.046-.043Z" transform="translate(347.817 -169.578)" fill="#f3dde9" fill-rule="evenodd"></path>
                <path id="路径_17028" data-name="路径 17028" d="M-245.546,287.833l-.048-.041Z" transform="translate(347.776 -169.616)" fill="#f3dde9" fill-rule="evenodd"></path>
                <path id="路径_17029" data-name="路径 17029" d="M-245.1,288.138a1.75,1.75,0,0,1-.181-.1A1.75,1.75,0,0,0-245.1,288.138Z" transform="translate(347.636 -169.724)" fill="#f3dde9" fill-rule="evenodd"></path>
                <path id="路径_17030" data-name="路径 17030" d="M-244.53,288.385c-.053-.015-.1-.031-.152-.05C-244.632,288.354-244.582,288.37-244.53,288.385Z" transform="translate(347.374 -169.856)" fill="#f3dde9" fill-rule="evenodd"></path>
                <path id="路径_17031" data-name="路径 17031" d="M-244.326,288.445c-.027-.006-.054-.013-.082-.021C-244.38,288.432-244.353,288.44-244.326,288.445Z" transform="translate(347.253 -169.895)" fill="#f3dde9" fill-rule="evenodd"></path>
                <path id="路径_17032" data-name="路径 17032" d="M-201.031,276.006c.021,0,.044,0,.067.008C-200.987,276.01-201.01,276.008-201.031,276.006Z" transform="translate(328.124 -164.419)" fill="#f3dde9" fill-rule="evenodd"></path>
                <path id="路径_17033" data-name="路径 17033" d="M-201.657,276.078a.321.321,0,0,1,.051-.023Z" transform="translate(328.4 -164.441)" fill="#f3dde9" fill-rule="evenodd"></path>
                <path id="路径_17034" data-name="路径 17034" d="M-201.84,276.222a.335.335,0,0,1,.035-.04A.335.335,0,0,0-201.84,276.222Z" transform="translate(328.481 -164.497)" fill="#f3dde9" fill-rule="evenodd"></path>
                <path id="路径_17035" data-name="路径 17035" d="M-201.981,276.841a.39.39,0,0,1,0-.051A.39.39,0,0,0-201.981,276.841Z" transform="translate(328.545 -164.765)" fill="#f3dde9" fill-rule="evenodd"></path>
                <path id="路径_17036" data-name="路径 17036" d="M-201.968,276.945c0-.013-.006-.027-.008-.042C-201.974,276.918-201.97,276.932-201.968,276.945Z" transform="translate(328.541 -164.814)" fill="#f3dde9" fill-rule="evenodd"></path>
                <path id="路径_17037" data-name="路径 17037" d="M-201.946,277.043c0-.017-.008-.033-.012-.048C-201.954,277.01-201.95,277.026-201.946,277.043Z" transform="translate(328.533 -164.855)" fill="#f3dde9" fill-rule="evenodd"></path>
                <path id="路径_17038" data-name="路径 17038" d="M-201.865,277.243a.333.333,0,0,1-.023-.046A.333.333,0,0,0-201.865,277.243Z" transform="translate(328.502 -164.944)" fill="#f3dde9" fill-rule="evenodd"></path>
                <path id="路径_17039" data-name="路径 17039" d="M-201.676,277.525l-.036-.043Z" transform="translate(328.425 -165.07)" fill="#f3dde9" fill-rule="evenodd"></path>
                <path id="路径_17040" data-name="路径 17040" d="M-201.6,277.617c-.012-.013-.024-.026-.037-.039Z" transform="translate(328.389 -165.112)" fill="#f3dde9" fill-rule="evenodd"></path>
                <path id="路径_17041" data-name="路径 17041" d="M-201.5,277.707c-.016-.015-.032-.029-.047-.043Z" transform="translate(328.353 -165.15)" fill="#f3dde9" fill-rule="evenodd"></path>
                <path id="路径_17042" data-name="路径 17042" d="M-199.529,278.826c-.06-.022-.119-.046-.177-.07C-199.648,278.78-199.59,278.8-199.529,278.826Z" transform="translate(327.54 -165.632)" fill="#f3dde9" fill-rule="evenodd"></path>
                <path id="路径_17043" data-name="路径 17043" d="M-197.708,279.425c-.074-.02-.149-.04-.22-.061Z" transform="translate(326.756 -165.9)" fill="#f3dde9" fill-rule="evenodd"></path>
                <path id="路径_17044" data-name="路径 17044" d="M-196.2,279.794c-.082-.017-.163-.035-.244-.053C-196.366,279.759-196.284,279.777-196.2,279.794Z" transform="translate(326.102 -166.066)" fill="#f3dde9" fill-rule="evenodd"></path>
                <path id="路径_17045" data-name="路径 17045" d="M-259.469,265.17c4.824-4.029,12.822-3.261,20.214-.55,7.478,2.744,15.569,8.029,19.078,13.323a.854.854,0,0,0,1.424-.944,27.81,27.81,0,0,0-5.72-6,10.5,10.5,0,0,0,1.847.184,6.934,6.934,0,0,0,2.189-.406c-.034-1.592-1.635-.395-5.627-1.477-.4-.106-.873-.308-1.291-.438a52.427,52.427,0,0,0-6.265-3.666l2.4-1.582a3.106,3.106,0,0,0,3.242,2.626c3.089-.123,6.6-3.633,8.235-6.374a12.873,12.873,0,0,0,1.347-.333,32.168,32.168,0,0,1,9.037,23.031h-30.932c1.324-3.835-1.706-6.483-4.941-8.092a.858.858,0,0,0-.925.1c-3.962,2.736-5.822-.186-5.829-.192a.806.806,0,0,0-.155-.178,1.428,1.428,0,0,1-.049-.383,4.67,4.67,0,0,1,1.884-3.336c.471-.325.713-.274.872-.869-.3-.453-.361-.467-.9-.342a2.587,2.587,0,0,0-1.1.523,4.636,4.636,0,0,0-1.493,1.7,4.523,4.523,0,0,0-.447,2.749l0-.009c-2.5,1.163-4.5-1.137-4.505-1.143a.847.847,0,0,0-.449-.268,3.42,3.42,0,0,1,.36-2.6l1.026-1.149c1.368-1.064,2.046-.634,2.574-1.631-1.833-1.227-5.365,1.278-5.365,4.205a5.186,5.186,0,0,0,.049.787C-263.021,271.064-262.333,267.563-259.469,265.17Z" transform="translate(354.972 -157.153)" fill="#eec7c7" fill-rule="evenodd"></path>
                <path id="路径_17046" data-name="路径 17046" d="M-207.843,288.331a18.51,18.51,0,0,1,1.181,1.581.854.854,0,0,0,1.424-.944,19.125,19.125,0,0,0-1.152-1.556c.943,1.048,4.465,4.254,10.059,1.051a34.677,34.677,0,0,1,.485,6.065h-30.932c1.264-3.655-1.433-6.231-4.488-7.859,1.446.754,11.3,5.763,17,5.428C-208.1,291.735-207.36,289.322-207.843,288.331Z" transform="translate(341.457 -169.121)" fill="#e1b6cc" fill-rule="evenodd"></path>
                <path id="路径_17047" data-name="路径 17047" d="M-226.556,306.529c0-.053,0-.108,0-.163C-226.557,306.421-226.556,306.476-226.556,306.529Z" transform="translate(339.382 -177.807)" fill="#f3dde9" fill-rule="evenodd"></path>
                <path id="路径_17048" data-name="路径 17048" d="M-226.619,307.3c.009-.05.018-.1.023-.155C-226.6,307.2-226.609,307.249-226.619,307.3Z" transform="translate(339.408 -178.15)" fill="#f3dde9" fill-rule="evenodd"></path>
                <path id="路径_17049" data-name="路径 17049" d="M-226.829,307.856l0-.006v0a.557.557,0,0,0,.027-.062h0l0,0,.022-.059v0l0-.008c.015-.042.027-.086.039-.13-.012.045-.023.088-.039.13Z" transform="translate(339.501 -178.342)" fill="#f3dde9" fill-rule="evenodd"></path>
                <path id="路径_17050" data-name="路径 17050" d="M-226.884,308.13c.012-.019.02-.037.031-.056C-226.864,308.093-226.872,308.111-226.884,308.13Z" transform="translate(339.525 -178.56)" fill="#f3dde9" fill-rule="evenodd"></path>
                <path id="路径_17051" data-name="路径 17051" d="M-227.089,308.107a1.139,1.139,0,0,0,.115.038A1.139,1.139,0,0,1-227.089,308.107Z" transform="translate(339.615 -178.575)" fill="#f3dde9" fill-rule="evenodd"></path>
                <path id="路径_17052" data-name="路径 17052" d="M-227.3,308a.558.558,0,0,0,.052.026A.558.558,0,0,1-227.3,308Z" transform="translate(339.71 -178.529)" fill="#f3dde9" fill-rule="evenodd"></path>
                <path id="路径_17053" data-name="路径 17053" d="M-227.384,307.955l.044.026C-227.355,307.973-227.369,307.964-227.384,307.955Z" transform="translate(339.745 -178.508)" fill="#f3dde9" fill-rule="evenodd"></path>
                <path id="路径_17054" data-name="路径 17054" d="M-227.564,307.822a.963.963,0,0,0,.091.068A.877.877,0,0,1-227.564,307.822Z" transform="translate(339.825 -178.449)" fill="#f3dde9" fill-rule="evenodd"></path>
                <path id="路径_17055" data-name="路径 17055" d="M-227.644,307.751l.04.036Z" transform="translate(339.86 -178.418)" fill="#f3dde9" fill-rule="evenodd"></path>
                <path id="路径_17056" data-name="路径 17056" d="M-227.724,307.668l.04.041Z" transform="translate(339.895 -178.381)" fill="#f3dde9" fill-rule="evenodd"></path>
                <path id="路径_17057" data-name="路径 17057" d="M-227.8,307.585c.012.015.025.029.037.043C-227.772,307.614-227.785,307.6-227.8,307.585Z" transform="translate(339.928 -178.345)" fill="#f3dde9" fill-rule="evenodd"></path>
                <path id="路径_17058" data-name="路径 17058" d="M-227.93,307.412c.022.032.046.064.07.093C-227.884,307.476-227.908,307.444-227.93,307.412Z" transform="translate(339.986 -178.268)" fill="#f3dde9" fill-rule="evenodd"></path>
                <path id="路径_17059" data-name="路径 17059" d="M-289.035,274.517a31.844,31.844,0,0,1,6.228,2.471,6.069,6.069,0,0,1,2.554,3.133h0a.8.8,0,0,0,.01.324c1.027,4.742-3.721,5.712-4.065,5.776a.881.881,0,0,0-.2.056l.016.075c-.93-4.386-8.31-6.341-9.327-4.877.469.7,1.7.689,3.015,1.044a9.718,9.718,0,0,1,2.787,1.273c2.072,1.371,2.291,2.582,2.726,4.6h0c-1.924,7.591-10.565,2.985-14.866.7-.484-.256-.912-.582-1.359-.468-29.1,7.444-37.465-8.372-38.015-9.485a.855.855,0,0,0-1.529-.143c-.921,1.5-1.69,2.2-2.28,2.274-.409.049-.8-.381-1.121-1.166a12.594,12.594,0,0,1-.672-4.628c.037-6.959,3.288-18.135,12.37-26.531,1.522,5.925,8.055,11.568,10.39,8.722a4.067,4.067,0,0,0,.581-3.02,66.669,66.669,0,0,0,21.738,8.507,5.436,5.436,0,0,0-.224,2.286c-3.494-.371-8.244-.657-12.888-.664h0l-.05-.011c-3.187-.685-6.445-2.721-7.574-2.721.026,1.118,1.593,2.1,3.383,2.826l-.035-.013a39.82,39.82,0,0,0-8.622,1.1.856.856,0,0,0,.468,1.646,48.739,48.739,0,0,1,11.2-1.115,120.325,120.325,0,0,1,14.737.743,4.591,4.591,0,0,0,.389.542,6.369,6.369,0,0,0,3.614,2c.7.681,3.071,2.661,6.017,1.466.983,1.026,3.465,2.81,7.372.32,2.594,1.38,4.893,3.38,3.378,6.423l-.581.932a7.592,7.592,0,0,0-2.434-2.977,12.758,12.758,0,0,0-7.136-2Z" transform="translate(391.671 -152.486)" fill="#eec7c7" fill-rule="evenodd"></path>
                <path id="路径_17060" data-name="路径 17060" d="M-280.111,289.041c.266,3.949-3.876,4.8-4.2,4.856a.88.88,0,0,0-.2.056l.016.075a5.775,5.775,0,0,0-2.263-3.288c2.246.589,5.768,1.021,6.644-1.7Zm-5.18,7.023c-4.372,4.136-16.231-4.839-17.273-5.609s-1.631-.272-1.631-.272-17.943,8.338-29.543-1.9c-11.52-10.17-6.7-21.769-6.637-21.929a36.616,36.616,0,0,0-4.758,16.8,12.593,12.593,0,0,0,.672,4.628c.323.785.712,1.215,1.121,1.166.589-.069,1.358-.775,2.28-2.274a.855.855,0,0,1,1.529.143c.55,1.114,8.917,16.93,38.015,9.485.447-.114.875.212,1.359.468,4.3,2.281,12.943,6.887,14.866-.7Zm6.854-12.777a3.917,3.917,0,0,1-.446,2.367l-.581.932a8.38,8.38,0,0,0-1.544-2.231A2.373,2.373,0,0,0-278.437,283.286Z" transform="translate(391.671 -160.161)" fill="#e1b6cc" fill-rule="evenodd"></path>
                <path id="路径_17061" data-name="路径 17061" d="M-315.788,294.345c-17.691.044-23.3-10.565-23.744-11.47a.855.855,0,0,0-1.529-.143c-.921,1.5-1.69,2.2-2.28,2.274-.409.049-.8-.381-1.121-1.166a12.593,12.593,0,0,1-.672-4.628c.031-5.714,2.228-14.269,8.04-21.8,1.326,1.838,2.137,4.547,1.462,8.539,0,0,6.433,1.45,4.44,8.7C-331.193,274.655-315.377,274.811-315.788,294.345Z" transform="translate(391.671 -156.221)" fill="#fff" fill-rule="evenodd"></path>
                <path id="路径_17062" data-name="路径 17062" d="M-315.788,298.29c-17.691.044-23.3-10.565-23.744-11.47a.855.855,0,0,0-1.529-.143c-.921,1.5-1.69,2.2-2.28,2.274-.409.049-.8-.381-1.121-1.166a12.594,12.594,0,0,1-.672-4.628,36.607,36.607,0,0,1,4.756-16.8c-.155.376-4.768,11.851,6.64,21.922,5.332,4.706,12,5.488,17.658,4.958A30.119,30.119,0,0,1-315.788,298.29Z" transform="translate(391.671 -160.167)" fill="#f3dde9" fill-rule="evenodd"></path>
                <path id="路径_17063" data-name="路径 17063" d="M-314.52,245.275a4.372,4.372,0,0,0,1.916,3.02c.339,1.647.238,2.634-.143,3.1-.571.694-2.007-.037-2.747-.524a13.909,13.909,0,0,1-5.561-8.4.849.849,0,0,0,.13-.567,7.073,7.073,0,0,1,1.4-5.341c1.519,4.542,5.076,5.517,7.116,1.727.7,1.576,1.745,3.145,3.257,3.532v0a3,3,0,0,0,2.944-.987c10.211,5.3,24.842,8.9,36.04,9.381a51.405,51.405,0,0,0,14.034-1.155,23.954,23.954,0,0,0,8.636.9,14.1,14.1,0,0,1-4.422,4.141c-1.107.613-2.707,1.168-3.584.184-1.069-1.2-.245-2.758-1.413-2.683a1.05,1.05,0,0,0-.741.485,18.487,18.487,0,0,1-3.463,2.289c-7.959-3.652-17.991-5.742-24.454-1.45a9.968,9.968,0,0,0-3.353,3.554,65.443,65.443,0,0,1-21.447-8.314,11.631,11.631,0,0,1-1.859-1.413,8.537,8.537,0,0,1-1.1-1.221C-314.036,244.574-314.52,244.726-314.52,245.275Z" transform="translate(381.053 -147.025)" fill="#f8e8c7" fill-rule="evenodd"></path>
                <path id="路径_17064" data-name="路径 17064" d="M-245.811,111.3c2.94-2,6.809-4.183,7.808-3.714.814.381,1.655,1.862,2.356,4.167a38.037,38.037,0,0,1,1.388,9.707,61.273,61.273,0,0,1-5.728,27.212.85.85,0,0,0-.066.643c2.339,7.945,2.1,16.511-2.257,23.513a.855.855,0,0,0,.074,1.013,1.958,1.958,0,0,1-.426,3.06,11.234,11.234,0,0,1-4.7,1.872.856.856,0,0,0-.208,1.627c1.54.679,3.075,1.678,2.365,2.606a3.459,3.459,0,0,1-1.386.941c-2.428,1.046-6.86,1.322-11.7-.112a.852.852,0,0,0-.472,0,49.472,49.472,0,0,1-13.751,1.155,97.119,97.119,0,0,1-27.08-5.6A68.39,68.39,0,0,1-308.4,175.5a.855.855,0,0,0-1.131.24c-.381.537-.959,1.068-1.612.9v0c-1.187-.306-2.291-2.652-2.763-4.29-.1-.362-.221-.689-.662-.811-.546-.151-.941.186-1.092.743-.6,2.215-2.017,4.37-3.678,2.174a8.266,8.266,0,0,1-1.329-3.224.843.843,0,0,0-.036-.171,19.549,19.549,0,0,1-.269-5.13.851.851,0,0,0-.216-.628,23.316,23.316,0,0,1-5.22-17.009c.616-6.356,3.79-12.551,8.678-17.7a.851.851,0,0,0,.235-.6,61.283,61.283,0,0,1,7.3-26.841,38.041,38.041,0,0,1,5.659-8.008c1.592-1.649,3.482-3,4.269-2.57,3.443,1.884,11.848,20.849,13.436,24.441a.854.854,0,0,0,.826.509l2.365.125a.849.849,0,0,0,.66-.236c5.7-4.722,10.8-6.263,13.911-5.918,3.657.405,3.287,3.014.256,5.639a.855.855,0,0,0,.653,1.494c8.359-.91,7.442,4.217,3.006,5.277-1.081.257-1.287-.025-2.181.574.293.553.423.7,1.741.725C-259.963,125.3-259.229,120.413-245.811,111.3Z" transform="translate(383.462 -83.496)" fill="#eec7c7" fill-rule="evenodd"></path>
                <path id="路径_17065" data-name="路径 17065" d="M-238.585,193.146a25.755,25.755,0,0,1-3.726,13.994.855.855,0,0,0,.074,1.013,1.958,1.958,0,0,1-.426,3.06,11.234,11.234,0,0,1-4.7,1.872.856.856,0,0,0-.208,1.627c1.54.679,3.075,1.678,2.365,2.606a3.459,3.459,0,0,1-1.386.941c-2.428,1.046-6.86,1.322-11.7-.112a.852.852,0,0,0-.472,0,49.472,49.472,0,0,1-13.751,1.155,97.119,97.119,0,0,1-27.08-5.6,68.388,68.388,0,0,1-8.814-3.885.855.855,0,0,0-1.131.24c-.381.537-.959,1.068-1.612.9v0c-1.187-.306-2.291-2.652-2.763-4.29-.1-.362-.221-.689-.662-.811-.546-.151-.941.186-1.092.743-.6,2.215-2.017,4.37-3.678,2.174a8.266,8.266,0,0,1-1.329-3.224.843.843,0,0,0-.036-.171,19.549,19.549,0,0,1-.269-5.13.851.851,0,0,0-.216-.628,23.316,23.316,0,0,1-5.22-17.009,26.052,26.052,0,0,1,1.843-7.324c6.325-4.842,15.433-7.5,27.79-1.576,0,0,6.233,2.451,11.036,11.6l7.883,2.447S-247.5,177.058-238.585,193.146Z" transform="translate(383.462 -117.808)" fill="#fff" fill-rule="evenodd"></path>
                <path id="路径_17067" data-name="路径 17067" d="M-198.317,144.547c3.017,2.923,9.5,9.577,13.66,16.527a67.987,67.987,0,0,0,4.01-20c.149-4.567-.389-7.97-1.617-8.338C-184.728,132-197.21,143.521-198.317,144.547Z" transform="translate(326.927 -101.226)" fill="#f3a9a9" fill-rule="evenodd"></path>
                <path id="路径_17068" data-name="路径 17068" d="M-284.464,122.847c-.42-1.155-6.418-17.535-8.968-17.865-1.266-.135-3.232,2.53-5.195,6.694a68.013,68.013,0,0,0-5.6,20.125C-300.735,129.279-292.681,124.042-284.464,122.847Z" transform="translate(373.63 -88.998)" fill="#f3a9a9" fill-rule="evenodd"></path>
                <path id="路径_17069" data-name="路径 17069" d="M-282.25,97.485c3.806,6.163,8.7,17.854,9.7,19.667.871,1.582,2.363,2.266,4.115.3a.85.85,0,0,1-.426-.433c-1.588-3.592-9.993-22.557-13.436-24.441-.657-.361-2.085.524-3.465,1.787A6.458,6.458,0,0,1-282.25,97.485Z" transform="translate(365.491 -83.495)" fill="#fff" fill-rule="evenodd"></path>
                <path id="路径_17070" data-name="路径 17070" d="M-234.733,126.455c-3.106-.345-8.206,1.2-13.911,5.918,0,0,9.837-5.738,15.394-1.509C-231.43,128.7-231.652,126.8-234.733,126.455Z" transform="translate(349.121 -98.449)" fill="#fff" fill-rule="evenodd"></path>
                <path id="路径_17071" data-name="路径 17071" d="M-191.959,123.147A94.4,94.4,0,0,0-204.4,133.212c.846.408,2.222.578,4.247-.519,3.853-2.084,6.525-6.344,13.277-9.787a7.577,7.577,0,0,1,4.5-.945,4.773,4.773,0,0,0-1.778-2.528C-185.149,118.964-189.018,121.151-191.959,123.147Z" transform="translate(329.609 -95.345)" fill="#fff" fill-rule="evenodd"></path>
                <path id="路径_17072" data-name="路径 17072" d="M-182.264,132.74c-2.464-.737-14.945,10.78-16.053,11.807,1.159,1.123,2.83,2.8,4.682,4.824-.306-1.318-.548-3.063,0-4.022.951-1.676,7.613-8.157,9.56-9.561a4.011,4.011,0,0,1,3.026-.989C-181.325,133.639-181.729,132.9-182.264,132.74Z" transform="translate(326.927 -101.226)" fill="#c87b9a" fill-rule="evenodd"></path>
                <path id="路径_17073" data-name="路径 17073" d="M-277.313,122.847c-.42-1.155-6.418-17.535-8.968-17.865-.485-.051-1.073.307-1.725,1.005.517-.164,1.219.045,2,1.464,1.378,2.488,3.177,13.286,3.7,16.579A30.777,30.777,0,0,1-277.313,122.847Z" transform="translate(366.478 -88.998)" fill="#c87b9a" fill-rule="evenodd"></path>
                <path id="路径_17074" data-name="路径 17074" d="M-295.2,280.317c-2.361.031-4.541.14-6.422.32,1.64,3.894,4.835,8.62,10.825,9.55,10.512,1.631,12.6-3.716,12.6-3.716a4.839,4.839,0,0,0,6.117-1.035,6.156,6.156,0,0,1-4.377-1.836,6.368,6.368,0,0,1-3.614-2,4.584,4.584,0,0,1-.389-.542A120.314,120.314,0,0,0-295.2,280.317Z" transform="translate(372.485 -166.316)" fill="#fff" fill-rule="evenodd"></path>
                <path id="路径_17075" data-name="路径 17075" d="M-243.548,264.637c4.258,8.757,17.544,14.176,23.9,11.511,0,0,1.658,2.684,5.342,1.275-4.086-4.3-10.676-8.3-16.847-10.563A32.007,32.007,0,0,0-243.548,264.637Z" transform="translate(346.874 -159.391)" fill="#fff" fill-rule="evenodd"></path>
                <path id="路径_17076" data-name="路径 17076" d="M-263.376,106.25c.814.381,1.655,1.862,2.356,4.167a38.039,38.039,0,0,1,1.388,9.707,61.274,61.274,0,0,1-5.728,27.212.85.85,0,0,0-.066.643c2.339,7.945,2.1,16.511-2.257,23.513a.855.855,0,0,0,.074,1.013,1.958,1.958,0,0,1-.426,3.06,11.234,11.234,0,0,1-4.7,1.872.856.856,0,0,0-.208,1.627c1.54.679,3.075,1.678,2.365,2.606a3.459,3.459,0,0,1-1.386.941c-2.428,1.046-6.86,1.322-11.7-.112a.852.852,0,0,0-.472,0,49.471,49.471,0,0,1-13.751,1.155,97.119,97.119,0,0,1-27.08-5.6,68.4,68.4,0,0,1-8.814-3.885.855.855,0,0,0-1.131.24c-.381.537-.959,1.068-1.612.9v0c-1.187-.306-2.291-2.652-2.763-4.29-.1-.362-.221-.689-.662-.811-.546-.151-.941.186-1.092.744-.6,2.215-2.017,4.37-3.678,2.174a8.265,8.265,0,0,1-1.329-3.224.844.844,0,0,0-.036-.171,19.547,19.547,0,0,1-.269-5.13.851.851,0,0,0-.216-.628,23.315,23.315,0,0,1-5.22-17.009c.616-6.356,3.79-12.55,8.678-17.7a.851.851,0,0,0,.235-.6,61.283,61.283,0,0,1,7.3-26.841,38.04,38.04,0,0,1,5.659-8.008c1.592-1.649,3.482-3,4.269-2.57,3.443,1.884,11.848,20.849,13.436,24.441a.854.854,0,0,0,.826.509l2.365.125a.849.849,0,0,0,.66-.236c5.7-4.722,10.8-6.263,13.911-5.918,3.657.405,3.287,3.014.256,5.639a.855.855,0,0,0,.653,1.494c8.359-.91,7.442,4.217,3.006,5.277-1.081.257-1.287-.025-2.181.574.293.553.423.7,1.741.725,5.637.091,6.371-4.8,19.788-13.912C-271.184,109.964-264.374,105.781-263.376,106.25ZM-342.3,180.411c0-.55.484-.7,1.183.266a8.536,8.536,0,0,0,1.1,1.221,11.63,11.63,0,0,0,1.859,1.413,65.443,65.443,0,0,0,21.447,8.314,9.968,9.968,0,0,1,3.353-3.554c6.462-4.292,16.494-2.2,24.454,1.45a18.485,18.485,0,0,0,3.463-2.289,1.05,1.05,0,0,1,.741-.485c1.167-.074.343,1.479,1.413,2.683.878.983,2.478.429,3.584-.184a14.1,14.1,0,0,0,4.422-4.141,23.954,23.954,0,0,1-8.636-.9,51.4,51.4,0,0,1-14.034,1.155c-11.2-.484-25.829-4.08-36.04-9.381a3,3,0,0,1-2.944.987v0c-1.513-.387-2.554-1.955-3.257-3.532-2.04,3.79-5.6,2.815-7.116-1.727a7.073,7.073,0,0,0-1.4,5.341.849.849,0,0,1-.13.567,13.909,13.909,0,0,0,5.561,8.4c.74.487,2.176,1.218,2.747.524.381-.467.481-1.453.143-3.1a4.372,4.372,0,0,1-1.916-3.02Zm23.861-64.773c-.019-.052-6.565-18.164-9.941-18.751-1.947-.3-4.391,2.7-6.608,7.4a69.253,69.253,0,0,0-5.757,20.951.641.641,0,0,0,1.275.135,67.987,67.987,0,0,1,5.641-20.539c1.963-4.165,3.929-6.829,5.195-6.694,2.642.341,8.989,17.923,8.991,17.929a.64.64,0,0,0,1.2-.437Zm54.556-3.208c-3.441-.743-17.249,12.149-17.29,12.187a.641.641,0,0,0,.873.938c.039-.036,13.555-12.65,16.13-11.88,1.228.368,1.766,3.772,1.617,8.338a67.986,67.986,0,0,1-4.333,20.858.639.639,0,0,0,1.194.457,69.234,69.234,0,0,0,4.419-21.275c.167-5.147-.654-8.886-2.4-9.559l-.215-.064ZM-306.2,204.192v-.58a12.758,12.758,0,0,1,7.136,2,7.592,7.592,0,0,1,2.434,2.977l.581-.932c1.515-3.043-.783-5.042-3.378-6.423-3.906,2.489-6.389.706-7.372-.32-2.946,1.2-5.318-.785-6.017-1.466a6.368,6.368,0,0,1-3.614-2,4.6,4.6,0,0,1-.389-.542,120.323,120.323,0,0,0-14.737-.743,48.739,48.739,0,0,0-11.2,1.115.856.856,0,0,1-.468-1.646,39.822,39.822,0,0,1,8.622-1.1l.035.013c-1.79-.722-3.357-1.708-3.383-2.826,1.128,0,4.387,2.037,7.574,2.721l.05.011h0c4.644.007,9.394.293,12.888.664a5.435,5.435,0,0,1,.224-2.286,66.669,66.669,0,0,1-21.738-8.507,4.067,4.067,0,0,1-.581,3.02c-2.335,2.846-8.869-2.8-10.39-8.722-9.083,8.4-12.333,19.572-12.37,26.531a12.6,12.6,0,0,0,.673,4.628c.323.785.712,1.215,1.121,1.166.589-.069,1.358-.775,2.28-2.274a.855.855,0,0,1,1.529.143c.55,1.114,8.917,16.93,38.015,9.485.447-.114.875.212,1.359.468,4.3,2.281,12.943,6.887,14.867-.7h0c-.435-2.013-.654-3.224-2.726-4.6a9.716,9.716,0,0,0-2.787-1.273c-1.313-.355-2.546-.343-3.015-1.044,1.017-1.464,8.4.491,9.327,4.877l-.016-.075a.881.881,0,0,1,.2-.056c.344-.064,5.092-1.034,4.065-5.776a.805.805,0,0,1-.01-.324h0a6.07,6.07,0,0,0-2.554-3.133,31.842,31.842,0,0,0-6.228-2.471Zm9.419,7.113c.022.032.046.064.07.093-.025-.03-.048-.061-.07-.093Zm.074.1c.012.015.025.029.037.043-.013-.014-.026-.028-.037-.043Zm.041.046.04.041-.04-.041Zm.045.046.04.036-.04-.036Zm.045.04a.957.957,0,0,0,.091.068.872.872,0,0,1-.091-.068Zm.1.074.044.026c-.015-.008-.029-.017-.044-.026Zm.045.027a.565.565,0,0,0,.052.026.565.565,0,0,1-.052-.026Zm.12.058a1.148,1.148,0,0,0,.115.038,1.148,1.148,0,0,1-.115-.038Zm.115.038c.012-.019.02-.037.031-.056-.011.019-.019.037-.031.056Zm.031-.056.06-.146c.015-.042.027-.086.039-.13-.012.045-.024.088-.039.13l0,.008v0l-.022.059,0,0h0a.559.559,0,0,1-.027.062v0l0,.006Zm.117-.364c.009-.05.018-.1.023-.155-.006.054-.014.105-.023.155Zm.037-.428c0-.053,0-.108,0-.163,0,.055,0,.11,0,.163Zm-17.323-20.7c4.824-4.029,12.822-3.261,20.214-.549,7.478,2.744,15.569,8.029,19.078,13.323a.854.854,0,0,0,1.424-.944,27.812,27.812,0,0,0-5.72-6,10.5,10.5,0,0,0,1.847.184,6.934,6.934,0,0,0,2.189-.406c-.034-1.592-1.635-.395-5.626-1.477-.4-.106-.873-.308-1.291-.438a52.426,52.426,0,0,0-6.265-3.666l2.4-1.582a3.106,3.106,0,0,0,3.242,2.626c3.089-.123,6.6-3.633,8.235-6.374a12.866,12.866,0,0,0,1.347-.333,32.168,32.168,0,0,1,9.037,23.031h-30.932c1.324-3.835-1.706-6.483-4.941-8.092a.858.858,0,0,0-.925.1c-3.962,2.736-5.822-.186-5.829-.192a.8.8,0,0,0-.155-.178,1.429,1.429,0,0,1-.049-.383,4.67,4.67,0,0,1,1.884-3.336c.471-.325.713-.274.872-.869-.3-.453-.361-.467-.9-.342a2.587,2.587,0,0,0-1.1.523,4.636,4.636,0,0,0-1.493,1.7,4.523,4.523,0,0,0-.447,2.749l0-.009c-2.5,1.163-4.5-1.137-4.505-1.143a.847.847,0,0,0-.449-.268,3.42,3.42,0,0,1,.36-2.6l1.026-1.149c1.368-1.064,2.046-.634,2.574-1.631-1.833-1.227-5.365,1.278-5.365,4.206a5.186,5.186,0,0,0,.049.787c-3.34-1.366-2.651-4.868.213-7.261Zm34.4,5.711c-.082-.017-.163-.035-.244-.053.081.018.162.036.244.053Zm-.852-.2-.22-.061c.072.021.146.041.22.061Zm-1.038-.331c-.06-.022-.119-.046-.177-.07.058.024.116.048.177.07Zm-1.161-.637-.047-.043c.015.015.031.029.047.043Zm-.056-.053-.037-.039c.013.012.025.026.037.039Zm-.046-.05-.036-.042.036.042Zm-.111-.155a.328.328,0,0,1-.023-.046.328.328,0,0,0,.023.046Zm-.05-.111c0-.017-.008-.033-.012-.048,0,.015.008.031.012.048Zm-.014-.058c0-.013-.006-.027-.008-.042,0,.015.006.029.008.042Zm-.009-.054a.38.38,0,0,1,0-.051.38.38,0,0,0,0,.051Zm.077-.351a.342.342,0,0,1,.035-.04.342.342,0,0,0-.035.04Zm.1-.088.051-.023a.324.324,0,0,0-.051.023Zm.35-.05c.021,0,.044,0,.067.008-.022,0-.045-.006-.067-.008Zm-24.167,6.963c-.027-.006-.054-.013-.082-.021.028.008.055.016.082.021Zm-.083-.021c-.053-.015-.1-.031-.152-.05.05.019.1.035.152.05Zm-.3-.115a1.753,1.753,0,0,1-.181-.1,1.753,1.753,0,0,0,.181.1Zm-.31-.2-.048-.041.048.041Zm-.055-.046c-.017-.015-.03-.029-.046-.043l.046.043Zm-25.5-4.99c-.154-.041-.312-.084-.472-.13.16.045.318.089.472.13Zm-1.9-.6c-.171-.064-.341-.129-.509-.2.168.068.338.133.509.2Zm32.409,21.3c.015.07.028.141.039.214-.011-.072-.023-.143-.039-.214Zm.04.219c.012.075.021.149.03.226l-.03-.226Zm.03.228c.008.072.012.146.018.22-.006-.074-.011-.148-.018-.22Zm.02.237c0,.074,0,.149,0,.224,0-.075,0-.15,0-.224ZM-364,205.145a14.239,14.239,0,0,0,.8,5.284c.637,1.55,1.632,2.367,2.9,2.216a4.42,4.42,0,0,0,2.745-1.927c2.574,3.985,12.723,15.917,38.979,9.321.134.016,5.527,3.3,9.883,3.845,3.79.476,7.2-.787,8.117-6.446,1.618-.458,5.8-2.154,4.924-7.266l.645-.892h55.852a1.18,1.18,0,0,1,1.176,1.176v55.6a1.182,1.182,0,0,1-.344.83,1.174,1.174,0,0,1-.832.345H-381.166a1.179,1.179,0,0,1-1.175-1.175v-55.6a1.181,1.181,0,0,1,.344-.831,1.179,1.179,0,0,1,.831-.345h16.237a.856.856,0,0,0,0-1.712h-16.237a2.916,2.916,0,0,0-2.04.847,2.882,2.882,0,0,0-.848,2.04v55.6a2.9,2.9,0,0,0,2.888,2.888h142.008a2.908,2.908,0,0,0,2.04-.848,2.877,2.877,0,0,0,.849-2.04v-55.6a2.9,2.9,0,0,0-2.889-2.888h-22.36a33.94,33.94,0,0,0-9.048-23.74c2.383-1.356,2.592-3.535.236-5.254a10.307,10.307,0,0,0,3.37-1.684,3.6,3.6,0,0,0,1.018-4.975,26.554,26.554,0,0,0,3.543-11.1,35.092,35.092,0,0,0-1.3-13.009,63.015,63.015,0,0,0,5.771-27.73,39.7,39.7,0,0,0-1.461-10.155c-.881-2.9-2.333-5.5-4.31-5.444-4.464.126-18.591,11.4-21.873,14.015-.585-2.438-3.487-3.033-5.916-3.027,2.716-3.43,1.249-6.551-2.772-7-3.435-.382-8.943,1.209-14.967,6.123l-1.636-.086c-1.945-4.378-10-22.584-13.966-24.758-1.733-.949-4.212.707-6.316,2.885a39.759,39.759,0,0,0-5.926,8.376,63.011,63.011,0,0,0-7.492,27.314c-5.017,5.369-8.273,11.826-8.918,18.479a24.94,24.94,0,0,0,5.41,18.008,21.271,21.271,0,0,0,.257,4.88,8.808,8.808,0,0,0-2.638,7.105C-360.419,185.621-363.962,197.687-364,205.145Z" transform="translate(408.834 -82.161)" fill="#815087" fill-rule="evenodd"></path>
                <path id="路径_17081" data-name="路径 17081" d="M-81.424,132.588c1.464-7.532.7-16.874-4.179-23.017-7.073-8.9-29.536-10.333-41.611-2.634-10.127,6.459-12.513,21.864-5.429,31.581-3.385,10.026-3.711,14.335,8.263,6.369C-110.948,150.821-85.093,151.466-81.424,132.588Z" transform="translate(299.761 -87.657)" fill="#fff" fill-rule="evenodd"></path>
                <path id="路径_17082" data-name="路径 17082" d="M-82.936,131.753a34.752,34.752,0,0,0,.149-12.562,21.892,21.892,0,0,0-4.159-9.763c-3.379-4.253-10.532-6.728-18.323-7.221-7.844-.5-16.283,1.027-22.159,4.775q-.471.3-.91.621a20.588,20.588,0,0,0-7.869,13.33,22.078,22.078,0,0,0,2.912,15.431q.32.5.666.979a.85.85,0,0,1,.12.772c-1.6,4.759-2.52,8.117-1.75,9.152.671.9,3.226-.1,8.732-3.766a.856.856,0,0,1,.817-.069,42.432,42.432,0,0,0,8.926,2.722,42.74,42.74,0,0,0,18.6-.252c5.737-1.532,10.6-4.71,13.009-10.168a18.6,18.6,0,0,0,1.233-3.98Zm1.828-12.863a36.467,36.467,0,0,1-.149,13.184,20.407,20.407,0,0,1-1.347,4.348c-2.65,6-7.926,9.474-14.133,11.131a44.456,44.456,0,0,1-19.369.279,44.787,44.787,0,0,1-8.864-2.65c-6.21,4.077-9.375,4.831-10.659,3.1-1.183-1.59-.323-5.247,1.366-10.3-.162-.233-.319-.467-.47-.7a23.8,23.8,0,0,1-3.158-16.627,22.286,22.286,0,0,1,8.55-14.427q.49-.359,1-.681c6.192-3.949,15.015-5.56,23.183-5.043,8.235.522,15.859,3.213,19.553,7.864A23.6,23.6,0,0,1-81.108,118.89Z" transform="translate(300.434 -86.983)" fill="#815087" fill-rule="evenodd"></path>
                <path id="路径_17083" data-name="路径 17083" d="M-99.1,147.658c-20.588-21.771-5.033-28.112-.205-15.6C-94.664,112.589-68.405,130.5-99.1,147.658Z" transform="translate(287.755 -97.206)" fill="#f68685" fill-rule="evenodd"></path>
                <path id="路径_17084" data-name="路径 17084" d="M-425.2,107.429c-2.126-6.241-2.567-14.285.872-20.085,4.981-8.4,23.939-12.245,35.118-7.1C-379.83,84.561-376,97.4-380.9,106.5c4.053,8.14,4.832,11.772-6.291,6.387C-397.932,119.5-419.869,123.072-425.2,107.429Z" transform="translate(427.707 -77.066)" fill="#fff" fill-rule="evenodd"></path>
                <path id="路径_17085" data-name="路径 17085" d="M-426.68,107.032a31.422,31.422,0,0,1-1.677-11.255,20.394,20.394,0,0,1,2.621-9.541c2.624-4.42,8.831-7.622,15.812-9.034,6.917-1.4,14.644-1.055,20.4,1.594q.484.223.935.466a19.275,19.275,0,0,1,9.019,11.358,20.568,20.568,0,0,1-.752,14.613c-.094.2-.192.407-.292.6,2.026,4.111,3.177,7.135,2.336,8.665-.925,1.681-3.74,1.434-9.538-1.322a38.554,38.554,0,0,1-7.2,3.271,38.332,38.332,0,0,1-16.579,2.028c-5.51-.691-10.44-3.048-13.417-7.88a17.579,17.579,0,0,1-1.665-3.567Zm.034-11.181a29.68,29.68,0,0,0,1.583,10.629,15.875,15.875,0,0,0,1.5,3.222c2.67,4.334,7.149,6.454,12.179,7.086a36.581,36.581,0,0,0,15.812-1.953,36.377,36.377,0,0,0,7.258-3.348l.4-.245.42.2c5.042,2.44,7.287,3.018,7.717,2.235.51-.926-.654-3.645-2.56-7.475l-.2-.4.209-.388c.162-.3.313-.6.451-.9a18.852,18.852,0,0,0,.674-13.39,17.563,17.563,0,0,0-8.2-10.359q-.419-.226-.84-.42c-5.418-2.493-12.752-2.8-19.35-1.471-6.543,1.324-12.312,4.244-14.674,8.227v0A18.708,18.708,0,0,0-426.646,95.851Z" transform="translate(428.382 -76.393)" fill="#815087" fill-rule="evenodd"></path>
                <g id="组_35749" data-name="组 35749" transform="translate(10.471 8.789)">
                  <path id="路径_17086" data-name="路径 17086" d="M-394.844,111.107c-.816,1.781-1.737,8.683,2.035,8.426l9.528-.649c3.772-.257,1.924-6.97.873-8.623C-385.794,104.923-392.211,105.36-394.844,111.107Z" transform="translate(403.443 -98.464)" fill="#f68685" fill-rule="evenodd"></path>
                  <path id="路径_17087" data-name="路径 17087" d="M-396.546,93.591c1.549-.433,3.2.866,3.678,2.9s-.383,4.038-1.933,4.472-3.2-.866-3.678-2.9S-398.1,94.025-396.546,93.591Z" transform="translate(404.783 -92.729)" fill="#f68685" fill-rule="evenodd"></path>
                  <path id="路径_17088" data-name="路径 17088" d="M-408.923,106.35c1.22-1.556,3.549-1.5,5.2.128s2,4.2.782,5.758-3.549,1.5-5.2-.128S-410.143,107.9-408.923,106.35Z" transform="translate(409.651 -97.894)" fill="#f68685" fill-rule="evenodd"></path>
                  <path id="路径_17089" data-name="路径 17089" d="M-381.446,92.131c1.387.176,2.382,1.789,2.222,3.6s-1.414,3.141-2.8,2.964-2.382-1.789-2.222-3.6S-382.833,91.955-381.446,92.131Z" transform="translate(398.456 -92.115)" fill="#f68685" fill-rule="evenodd"></path>
                  <path id="路径_17090" data-name="路径 17090" d="M-370.376,101.966a2.42,2.42,0,0,1,1.011,3.012,1.982,1.982,0,0,1-2.489,1.543,2.421,2.421,0,0,1-1.011-3.013A1.982,1.982,0,0,1-370.376,101.966Z" transform="translate(393.495 -96.408)" fill="#f68685" fill-rule="evenodd"></path>
                </g>
                <path id="路径_17091" data-name="路径 17091" d="M-279.8,147.34c8.41-1.4,14.889,12.667,12.062,21.07.86-1.878,2.886-12.269-2.189-17.525S-279.8,147.34-279.8,147.34Z" transform="translate(362.859 -107.562)" fill="#fff" fill-rule="evenodd"></path>
                <g id="组_35754" data-name="组 35754" transform="translate(32.984 39.68)">
                  <path id="路径_17092" data-name="路径 17092" d="M-217.309,212.436c3.12.527,5.457,2.1,5.219,3.523s-2.964,2.142-6.085,1.616-5.459-2.1-5.22-3.522S-220.43,211.91-217.309,212.436Z" transform="translate(305.01 -175.99)" fill="#e3a7a9" fill-rule="evenodd"></path>
                  <path id="路径_17093" data-name="路径 17093" d="M-288.959,195.683c3.121.527,5.458,2.1,5.218,3.523s-2.964,2.142-6.085,1.616-5.458-2.1-5.218-3.523S-292.081,195.157-288.959,195.683Z" transform="translate(336.606 -168.602)" fill="#e3a7a9" fill-rule="evenodd"></path>
                  <path id="路径_17094" data-name="路径 17094" d="M-226,174.978c10.422-12.805,20.5-9.182,20.821,7.136.218,11.275-19.054,7.671-22.587,4.7C-229.958,184.964-230.392,180.378-226,174.978Z" transform="translate(307.641 -156.142)" fill="#fff" fill-rule="evenodd"></path>
                  <path id="路径_17095" data-name="路径 17095" d="M-226,174.978c10.076-12.38,19.834-9.4,20.757,5.555-6.971-12.077-18.151-3.75-24.136,2.21C-229.344,180.6-228.38,177.908-226,174.978Z" transform="translate(307.64 -156.142)" fill="#f2d9d9" fill-rule="evenodd"></path>
                  <path id="路径_17096" data-name="路径 17096" d="M-276.943,162.155c-3.445-16.146-14.072-17.513-21.785-3.129-5.33,9.937,13.469,15.508,17.969,14.47C-277.965,172.85-275.491,168.966-276.943,162.155Z" transform="translate(338.639 -148.127)" fill="#fff" fill-rule="evenodd"></path>
                  <path id="路径_17097" data-name="路径 17097" d="M-274.079,162.156c-3.059-14.337-11.781-17.02-19.1-7.371,3.933-2.566,11.132-4.648,14.09,11.426a37.344,37.344,0,0,0,1.935,7.032C-274.687,172.129-272.757,168.354-274.079,162.156Z" transform="translate(335.775 -148.127)" fill="#f2d9d9" fill-rule="evenodd"></path>
                  <g id="组_35751" data-name="组 35751">
                    <path id="路径_17098" data-name="路径 17098" d="M-220.369,167.516c-3.724,2.395-9.747,8.339-9.88,13.841-.055.271.1,2.274.619,2.128.31-.116.357-1.639.416-2.029.993-5.027,5.929-9.98,9.65-12.3,5.875-3.518,10.284-1.528,12.521,5.529.215.675.4,1.343.585,2.028.077.244.341,1.511.689,1.456.383-.06.256-1.421.248-1.669a17.319,17.319,0,0,0-.33-2.229C-207.778,165.973-213.79,163.475-220.369,167.516Z" transform="translate(308.03 -155.421)" fill="#815087" fill-rule="evenodd"></path>
                    <path id="路径_17099" data-name="路径 17099" d="M-276.622,170.32c-.16.238-1.089,1.607-1.446,1.3-.172-.229.454-1.392.584-1.747,3.891-9.569-5.812-30.965-18.249-14.306-.3.267-1.915,2.946-2.328,2.711-.517-.293,1.222-3.144,1.367-3.431C-284.188,134.988-270.626,159.838-276.622,170.32Z" transform="translate(337.971 -147.375)" fill="#815087" fill-rule="evenodd"></path>
                    <g id="组_35750" data-name="组 35750" transform="translate(0 6.985)">
                      <path id="路径_17100" data-name="路径 17100" d="M-259.088,206.783a.639.639,0,0,1,.769-.475.64.64,0,0,1,.474.77,6.334,6.334,0,0,1-2.862,3.935,6.336,6.336,0,0,1-4.8.756l-.017-.005a6.337,6.337,0,0,1-3.918-2.858,6.33,6.33,0,0,1-.756-4.8.637.637,0,0,1,.1-.221l.017-.022a.639.639,0,0,1,.792-.181.639.639,0,0,1,.334.731,5.066,5.066,0,0,0,.608,3.828,5.054,5.054,0,0,0,3.132,2.283l.016,0a5.063,5.063,0,0,0,3.828-.608A5.051,5.051,0,0,0-259.088,206.783Z" transform="translate(325.721 -179.161)" fill="#815087" fill-rule="evenodd"></path>
                      <path id="路径_17101" data-name="路径 17101" d="M-250.337,208.953a.642.642,0,0,1,.636-.555.641.641,0,0,1,.641.642.652.652,0,0,1-.032.205,5.059,5.059,0,0,0,.618,3.782,5.057,5.057,0,0,0,3.091,2.272.769.769,0,0,1,.1.026,5.064,5.064,0,0,0,3.782-.618,5.058,5.058,0,0,0,2.285-3.138.639.639,0,0,1,.769-.474.639.639,0,0,1,.476.77,6.343,6.343,0,0,1-2.862,3.935,6.334,6.334,0,0,1-4.771.762l-.034-.007a6.335,6.335,0,0,1-3.933-2.863A6.33,6.33,0,0,1-250.337,208.953Z" transform="translate(316.956 -181.27)" fill="#815087" fill-rule="evenodd"></path>
                      <path id="路径_17102" data-name="路径 17102" d="M-260.577,226.133a.642.642,0,0,1-.205-.883.642.642,0,0,1,.883-.206,9.27,9.27,0,0,0,1.46.728,13.006,13.006,0,0,0,1.753.555,12.823,12.823,0,0,0,1.814.305,9.426,9.426,0,0,0,1.636.017.64.64,0,0,1,.691.586.641.641,0,0,1-.586.693,10.674,10.674,0,0,1-1.857-.022,14.167,14.167,0,0,1-1.994-.336,14.256,14.256,0,0,1-1.929-.609A10.658,10.658,0,0,1-260.577,226.133Z" transform="translate(321.533 -188.568)" fill="#815087" fill-rule="evenodd"></path>
                      <path id="路径_17103" data-name="路径 17103" d="M-194.835,213.75a.641.641,0,0,1-.719-.549.641.641,0,0,1,.549-.72c.053-.007,18.181-2.568,36.033,3.176a.64.64,0,0,1,.415.806.641.641,0,0,1-.8.414C-176.935,211.223-194.782,213.743-194.835,213.75Z" transform="translate(292.728 -182.817)" fill="#815087" fill-rule="evenodd"></path>
                      <path id="路径_17104" data-name="路径 17104" d="M-199.142,222.4a.64.64,0,0,1-.656-.622.639.639,0,0,1,.623-.657c.056,0,19.9-.672,39.631,7.133a.64.64,0,0,1,.361.833.64.64,0,0,1-.831.361C-179.5,221.736-199.085,222.4-199.142,222.4Z" transform="translate(294.597 -186.873)" fill="#815087" fill-rule="evenodd"></path>
                      <path id="路径_17105" data-name="路径 17105" d="M-198.855,230.336a.642.642,0,0,1-.593-.688.639.639,0,0,1,.688-.591,87.108,87.108,0,0,1,34.145,11.052.639.639,0,0,1,.229.875.639.639,0,0,1-.875.229A85.709,85.709,0,0,0-198.855,230.336Z" transform="translate(294.443 -190.38)" fill="#815087" fill-rule="evenodd"></path>
                      <path id="路径_17106" data-name="路径 17106" d="M-326.163,177.014a.642.642,0,0,1,.161.893.642.642,0,0,1-.894.16c-.042-.029-14.784-10.4-33-13.373a.641.641,0,0,1-.529-.735.641.641,0,0,1,.736-.529C-341.178,166.448-326.206,176.983-326.163,177.014Z" transform="translate(365.434 -161.436)" fill="#815087" fill-rule="evenodd"></path>
                      <path id="路径_17107" data-name="路径 17107" d="M-330.144,187.679a.641.641,0,0,1,.254.87.641.641,0,0,1-.871.253c-.049-.027-17.185-9.536-38.038-11.548a.641.641,0,0,1-.577-.7.639.639,0,0,1,.7-.577C-347.553,178.017-330.195,187.651-330.144,187.679Z" transform="translate(369.379 -166.973)" fill="#815087" fill-rule="evenodd"></path>
                      <path id="路径_17108" data-name="路径 17108" d="M-331.653,199.154a.639.639,0,0,1,.341.837.64.64,0,0,1-.837.342,85.713,85.713,0,0,0-34.864-5.615.641.641,0,0,1-.674-.6.64.64,0,0,1,.6-.675A87.13,87.13,0,0,1-331.653,199.154Z" transform="translate(368.634 -174.62)" fill="#815087" fill-rule="evenodd"></path>
                      <path id="路径_17109" data-name="路径 17109" d="M-250.665,194.469s3.465.72,5.086,2.149-3.193,7.965-7.286,6.979-5.4-9-3.307-9.531S-250.665,194.469-250.665,194.469Z" transform="translate(319.891 -174.878)" fill="#815087" fill-rule="evenodd"></path>
                      <path id="路径_17110" data-name="路径 17110" d="M-225.876,178.014a33,33,0,0,1,3.214-3.449,8.5,8.5,0,0,1,4.628-.183,9.114,9.114,0,0,1,6.436,11.16,9.361,9.361,0,0,1-7.29,7.1,26.651,26.651,0,0,1-6.813-1.7c-1.974-1.567-3.427-2-3.4-6.61A14.635,14.635,0,0,1-225.876,178.014Z" transform="translate(307.52 -166.166)" fill="#815087" fill-rule="evenodd"></path>
                      <path id="路径_17111" data-name="路径 17111" d="M-271.963,166.912a33.1,33.1,0,0,0-1.29-4.534,8.5,8.5,0,0,0-4.037-2.271,9.117,9.117,0,0,0-10.815,7,9.366,9.366,0,0,0,3.257,9.641,26.662,26.662,0,0,0,6.841,1.589c2.471-.495,3.962-.22,6.039-4.336A14.611,14.611,0,0,0-271.963,166.912Z" transform="translate(333.66 -159.87)" fill="#815087" fill-rule="evenodd"></path>
                    </g>
                  </g>
                  <g id="组_35752" data-name="组 35752" transform="translate(47.699 9.01)">
                    <path id="路径_17112" data-name="路径 17112" d="M-277.422,176.752a6.642,6.642,0,0,0,6.63-6.63,6.643,6.643,0,0,0-6.63-6.63,6.643,6.643,0,0,0-6.63,6.63A6.643,6.643,0,0,0-277.422,176.752Z" transform="translate(284.052 -163.492)" fill-rule="evenodd" fill="url(#linear-gradient)"></path>
                    <path id="路径_17113" data-name="路径 17113" d="M-275.41,176.214a4.087,4.087,0,0,0,4.08-4.08,4.087,4.087,0,0,0-4.08-4.079,4.087,4.087,0,0,0-4.079,4.079A4.087,4.087,0,0,0-275.41,176.214Z" transform="translate(282.04 -165.504)" fill="#815087" fill-rule="evenodd"></path>
                    <path id="路径_17114" data-name="路径 17114" d="M-279.134,169.484a1.77,1.77,0,0,0,1.766-1.767,1.771,1.771,0,0,0-1.766-1.768,1.771,1.771,0,0,0-1.767,1.768A1.77,1.77,0,0,0-279.134,169.484Z" transform="translate(282.662 -164.576)" fill="#fff" fill-rule="evenodd"></path>
                    <path id="路径_17115" data-name="路径 17115" d="M-276.3,174.351a.636.636,0,0,0,.634-.634.635.635,0,0,0-.634-.634.635.635,0,0,0-.634.634A.636.636,0,0,0-276.3,174.351Z" transform="translate(280.911 -167.721)" fill="#fff" fill-rule="evenodd"></path>
                  </g>
                  <g id="组_35753" data-name="组 35753" transform="translate(80.958 17.257)">
                    <path id="路径_17116" data-name="路径 17116" d="M-217.927,191.5a6.643,6.643,0,0,0,6.629-6.63,6.642,6.642,0,0,0-6.629-6.63,6.644,6.644,0,0,0-6.631,6.63A6.644,6.644,0,0,0-217.927,191.5Z" transform="translate(224.558 -178.245)" fill-rule="evenodd" fill="url(#linear-gradient-2)"></path>
                    <path id="路径_17117" data-name="路径 17117" d="M-215.915,190.966a4.087,4.087,0,0,0,4.079-4.08,4.086,4.086,0,0,0-4.079-4.08,4.088,4.088,0,0,0-4.081,4.08A4.089,4.089,0,0,0-215.915,190.966Z" transform="translate(222.546 -180.257)" fill="#815087" fill-rule="evenodd"></path>
                    <path id="路径_17118" data-name="路径 17118" d="M-217.209,185.29a1.771,1.771,0,0,0,1.769-1.767,1.771,1.771,0,0,0-1.769-1.768,1.771,1.771,0,0,0-1.767,1.768A1.771,1.771,0,0,0-217.209,185.29Z" transform="translate(222.096 -179.793)" fill="#fff" fill-rule="evenodd"></path>
                    <path id="路径_17119" data-name="路径 17119" d="M-214.367,190.157a.635.635,0,0,0,.633-.634.635.635,0,0,0-.633-.634.636.636,0,0,0-.635.634A.636.636,0,0,0-214.367,190.157Z" transform="translate(220.344 -182.939)" fill="#fff" fill-rule="evenodd"></path>
                  </g>
                </g>
                <path id="路径_17120" data-name="路径 17120" d="M-380.989,305.847h19.6a5.532,5.532,0,0,1-.467-.908,8.31,8.31,0,0,1-.371-1.149h-17.591a1.179,1.179,0,0,0-.831.345,1.181,1.181,0,0,0-.344.831Z" transform="translate(407.483 -176.671)" fill="#fff" fill-rule="evenodd"></path>
                <path id="路径_17121" data-name="路径 17121" d="M-225.8,305.982h57.554v-1.016a1.18,1.18,0,0,0-1.176-1.176h-55.852l-.645.892A8.039,8.039,0,0,1-225.8,305.982Z" transform="translate(339.1 -176.671)" fill="#fff" fill-rule="evenodd"></path>
              </g>
            </g>
          </svg>