<svg t="1639561109509" class="icon" viewBox="0 0 1024 1024" version="1.1" xmlns="http://www.w3.org/2000/svg" p-id="2715" width="200" height="200"><path d="M1021.824 99.84l-3.392-26.112-28.16-4.608A608.96 608.96 0 0 0 909.248 64c-55.936 0-139.264 7.232-218.368 41.856-61.184 26.752-115.008 89.216-160 185.6-4.416 9.344-8.576 19.008-12.672 28.672a400.64 400.64 0 0 0-29.824-64.256 322.112 322.112 0 0 0-105.472-110.336 508.992 508.992 0 0 0-272.448-80 382.72 382.72 0 0 0-81.856 7.872l-25.024 6.144-2.368 24.576c0 0.64-5.632 55.872 7.424 126.976 7.616 40.96 19.904 78.976 36.736 113.024a319.936 319.936 0 0 0 85.44 108.288c50.24 40.512 103.488 70.464 158.336 88.896 40.96 13.696 76.352 25.472 121.6 25.472 9.728 0 18.752 0.448 27.136 0.704 12.544 0.512 23.808 1.088 33.984 0.128V1024h80.192V469.76l5.952 0.96c36.928 5.76 75.072 11.584 107.328 11.584 118.528 0 210.304-33.92 272.64-100.8 104.96-112.832 84.8-274.944 83.84-281.728" p-id="2716" fill="#F68685"></path></svg>