<svg t="1639725450458" class="icon" viewBox="0 0 1024 1024" version="1.1" xmlns="http://www.w3.org/2000/svg" p-id="6182" width="200" height="200"><path d="M854.4 518.9c-36.7-36.7-83.4-59.9-133.9-67.1C739.7 416.9 750 377.4 750 337c0-63.4-24.7-123-69.5-167.8-44.8-44.8-104.4-69.5-167.8-69.5-63.4 0-123 24.7-167.8 69.5S275.4 273.6 275.4 337c0 40.1 10.2 79.4 29.2 114.1-52.3 6.4-100.7 29.9-138.6 67.7-44.8 44.8-69.5 104.4-69.5 167.8 0 63.4 24.7 123 69.5 167.8 44.8 44.8 104.4 69.5 167.8 69.5 67.8 0 131.6-28.8 176.3-78.5 44.7 49.6 108.5 78.5 176.3 78.5 63.4 0 123-24.7 167.8-69.5 44.8-44.8 69.5-104.4 69.5-167.8 0.2-63.3-24.5-122.9-69.3-167.7zM512.7 149.7C616 149.7 700 233.7 700 337c0 41.1-13.6 81.1-38.4 113.6-0.2 0-0.3 0-0.5 0.1-0.7 0.1-1.4 0.2-2.1 0.2-1.2 0.1-2.4 0.3-3.7 0.4-0.8 0.1-1.5 0.2-2.3 0.3-1.1 0.2-2.3 0.3-3.4 0.5-0.8 0.1-1.6 0.3-2.4 0.4-1.1 0.2-2.2 0.4-3.4 0.6-0.8 0.1-1.6 0.3-2.3 0.4-1.1 0.2-2.3 0.4-3.4 0.7-0.7 0.2-1.5 0.3-2.2 0.5-1.2 0.3-2.4 0.5-3.6 0.8-0.7 0.2-1.3 0.3-2 0.5-1.5 0.4-3 0.7-4.5 1.1-0.4 0.1-0.7 0.2-1.1 0.3-1.8 0.5-3.7 1-5.5 1.6-0.5 0.1-1 0.3-1.5 0.5-1.3 0.4-2.7 0.8-4 1.2-0.7 0.2-1.3 0.4-2 0.7-1.1 0.4-2.3 0.8-3.4 1.2-0.7 0.3-1.4 0.5-2.2 0.8l-3.3 1.2c-0.7 0.3-1.5 0.6-2.2 0.8-1.1 0.4-2.1 0.8-3.2 1.3-0.7 0.3-1.4 0.6-2.2 0.9-1.1 0.5-2.2 0.9-3.3 1.4-0.7 0.3-1.4 0.6-2 0.9-1.2 0.5-2.4 1.1-3.5 1.6-0.6 0.3-1.1 0.5-1.7 0.8-1.7 0.8-3.5 1.7-5.2 2.5-1.7 0.8-3.3 1.7-5 2.6-0.5 0.3-1.1 0.6-1.6 0.9l-3.3 1.8c-0.6 0.4-1.2 0.7-1.8 1.1l-3 1.8c-0.6 0.4-1.3 0.8-1.9 1.2-1 0.6-1.9 1.2-2.9 1.8-0.6 0.4-1.3 0.8-1.9 1.2-1 0.6-1.9 1.2-2.9 1.9l-1.8 1.2c-1 0.7-2 1.4-3 2-0.5 0.4-1.1 0.7-1.6 1.1-1.2 0.8-2.4 1.7-3.5 2.6-0.3 0.2-0.6 0.5-1 0.7-1.5 1.1-2.9 2.2-4.4 3.4l-1.2 0.9c-1.1 0.8-2.1 1.7-3.1 2.5-0.5 0.4-1.1 0.9-1.6 1.3-0.9 0.7-1.8 1.5-2.6 2.2-0.6 0.5-1.1 1-1.7 1.5-0.8 0.7-1.6 1.5-2.5 2.2-0.6 0.5-1.2 1.1-1.7 1.6-0.8 0.7-1.6 1.5-2.4 2.2-0.6 0.5-1.1 1.1-1.7 1.6l-2.4 2.4c-0.5 0.5-1.1 1-1.6 1.6-0.9 0.9-1.7 1.8-2.6 2.7l-1.3 1.3-0.2 0.2c-2.2 0-4.3 0-6.5-0.1l-0.3-0.3c-0.5-0.5-0.9-1-1.4-1.4-0.8-0.9-1.6-1.7-2.5-2.6l-1.6-1.6c-0.8-0.8-1.6-1.6-2.4-2.3-0.6-0.5-1.1-1.1-1.7-1.6-0.8-0.7-1.6-1.5-2.4-2.2-0.6-0.5-1.1-1.1-1.7-1.6-0.8-0.7-1.6-1.5-2.4-2.2-0.6-0.5-1.1-1-1.7-1.5-0.9-0.7-1.7-1.5-2.6-2.2-0.5-0.4-1.1-0.9-1.6-1.3-1.1-0.9-2.1-1.7-3.2-2.6-0.4-0.3-0.7-0.6-1-0.8-1.4-1.1-2.8-2.2-4.3-3.3-0.5-0.4-1-0.7-1.4-1.1-1-0.7-2-1.5-3-2.2-0.6-0.4-1.2-0.8-1.8-1.3-0.9-0.6-1.8-1.2-2.7-1.9-0.6-0.4-1.3-0.9-1.9-1.3-0.9-0.6-1.7-1.2-2.6-1.7-0.7-0.4-1.3-0.9-2-1.3-0.9-0.6-1.8-1.1-2.7-1.7-0.7-0.4-1.3-0.8-2-1.2-0.9-0.6-1.8-1.1-2.8-1.6-0.6-0.4-1.3-0.8-1.9-1.1-1-0.6-2-1.1-3-1.7-0.6-0.3-1.1-0.6-1.7-0.9l-4.5-2.4c-0.2-0.1-0.5-0.2-0.7-0.4-1.4-0.7-2.9-1.5-4.4-2.2-0.6-0.3-1.2-0.5-1.8-0.8-1.1-0.5-2.1-1-3.2-1.5-0.7-0.3-1.3-0.6-2-0.9-1-0.4-2-0.9-3-1.3l-2.1-0.9c-1-0.4-2-0.8-2.9-1.2-0.7-0.3-1.4-0.6-2.1-0.8-1-0.4-2-0.8-3-1.1-0.7-0.3-1.4-0.5-2.1-0.8-1.1-0.4-2.1-0.8-3.2-1.1-0.7-0.2-1.3-0.5-2-0.7-1.2-0.4-2.5-0.8-3.7-1.2-0.5-0.2-1-0.3-1.4-0.5-1.7-0.5-3.5-1.1-5.2-1.6l-1.2-0.3c-1.4-0.4-2.7-0.8-4.1-1.1-0.6-0.2-1.3-0.3-1.9-0.5-1.1-0.3-2.3-0.6-3.4-0.8-0.7-0.2-1.4-0.3-2.1-0.5-1.1-0.2-2.2-0.5-3.3-0.7-0.7-0.2-1.5-0.3-2.2-0.5-1.1-0.2-2.2-0.4-3.2-0.6-0.7-0.1-1.5-0.3-2.2-0.4l-3.3-0.6-2.1-0.3c-1.2-0.2-2.4-0.3-3.6-0.5-0.6-0.1-1.3-0.2-1.9-0.3-0.2 0-0.3 0-0.5-0.1-25.1-32.6-38.9-72.8-38.9-114.3 0.1-103.1 84.1-187.1 187.4-187.1zM333.9 874.1c-103.3 0-187.4-84-187.4-187.3 0-103.3 84-187.3 187.4-187.3 5.1 0 10.4 0.2 15.5 0.6 49.4 4 94.5 27.1 126.9 64.9 4.7 5.5 9.2 11.3 13.2 17.4 20.8 30.9 31.7 67 31.7 104.4 0 10.5-0.9 20.9-2.6 31.2-0.2 1.4-0.5 2.7-0.7 4.1-4.7 24.6-14.3 48.1-28.4 69.1-35 51.8-93.1 82.9-155.6 82.9z m352.7 0c-57.2 0-110.8-26-146.2-70.2 0.7-1.2 1.3-2.3 2-3.5 0.2-0.4 0.4-0.7 0.6-1.1 0.5-0.9 0.9-1.7 1.4-2.6 0.2-0.5 0.5-0.9 0.7-1.4 0.4-0.8 0.8-1.5 1.2-2.3 0.2-0.5 0.5-1 0.7-1.5 0.4-0.8 0.7-1.5 1.1-2.3 0.2-0.5 0.5-1 0.7-1.5 0.4-0.8 0.7-1.5 1.1-2.3 0.2-0.5 0.4-1 0.7-1.4 0.4-0.8 0.7-1.7 1.1-2.5 0.2-0.4 0.4-0.8 0.5-1.3 0.5-1.1 0.9-2.2 1.4-3.3 0.1-0.2 0.1-0.3 0.2-0.5 0.5-1.3 1-2.6 1.5-3.8 0.1-0.3 0.3-0.7 0.4-1 0.4-0.9 0.7-1.9 1.1-2.8 0.2-0.5 0.3-0.9 0.5-1.4 0.3-0.8 0.6-1.7 0.9-2.5 0.2-0.5 0.3-1 0.5-1.5 0.3-0.8 0.5-1.6 0.8-2.4 0.2-0.5 0.3-1 0.5-1.5 0.3-0.8 0.5-1.7 0.8-2.5 0.1-0.5 0.3-1 0.4-1.5 0.3-0.9 0.5-1.8 0.8-2.7 0.1-0.4 0.2-0.8 0.4-1.2 0.4-1.2 0.7-2.5 1-3.7 0-0.1 0-0.2 0.1-0.2 0.4-1.3 0.7-2.7 1-4 0.1-0.4 0.2-0.7 0.3-1.1 0.2-1 0.5-1.9 0.7-2.9 0.1-0.5 0.2-1 0.3-1.4 0.2-0.9 0.4-1.7 0.6-2.6 0.1-0.5 0.2-1 0.3-1.6 0.2-0.8 0.3-1.7 0.5-2.5 0.1-0.5 0.2-1.1 0.3-1.6 0.2-0.9 0.3-1.7 0.5-2.6l0.3-1.5c0.2-0.9 0.3-1.9 0.4-2.8 0.1-0.4 0.1-0.9 0.2-1.3 0.2-1.3 0.4-2.6 0.5-3.9v-0.2c0.2-1.4 0.3-2.7 0.5-4.1 0-0.4 0.1-0.8 0.1-1.3 0.1-1 0.2-1.9 0.3-2.9 0-0.5 0.1-1 0.1-1.6 0.1-0.9 0.1-1.7 0.2-2.6 0-0.6 0.1-1.1 0.1-1.7 0.1-0.8 0.1-1.7 0.2-2.5 0-0.6 0.1-1.1 0.1-1.7 0-0.9 0.1-1.7 0.1-2.6 0-0.5 0-1.1 0.1-1.6 0-0.9 0.1-1.9 0.1-2.8v-1.4-4.2-4.2-1.4c0-0.9 0-1.9-0.1-2.8 0-0.5 0-1.1-0.1-1.6 0-0.9-0.1-1.7-0.1-2.6 0-0.6-0.1-1.1-0.1-1.7 0-0.8-0.1-1.7-0.2-2.5 0-0.6-0.1-1.1-0.1-1.7-0.1-0.9-0.1-1.7-0.2-2.6 0-0.5-0.1-1.1-0.1-1.6-0.1-0.9-0.2-1.8-0.3-2.8 0-0.5-0.1-0.9-0.1-1.4-0.2-1.4-0.3-2.7-0.5-4.1 0-0.1 0-0.3-0.1-0.4-0.2-1.2-0.3-2.4-0.5-3.6-0.1-0.5-0.1-1-0.2-1.5-0.1-0.9-0.3-1.7-0.4-2.6-0.1-0.6-0.2-1.1-0.3-1.7-0.1-0.8-0.3-1.6-0.4-2.4-0.1-0.6-0.2-1.1-0.3-1.7-0.1-0.8-0.3-1.6-0.5-2.4-0.1-0.6-0.2-1.1-0.4-1.7-0.2-0.8-0.3-1.6-0.5-2.4-0.1-0.6-0.2-1.1-0.4-1.7-0.2-0.9-0.4-1.7-0.6-2.6-0.1-0.5-0.2-1-0.3-1.4-0.3-1.3-0.7-2.6-1-3.9-0.1-0.3-0.2-0.6-0.3-1-0.3-1-0.5-2-0.8-3-0.2-0.5-0.3-1.1-0.5-1.6-0.2-0.8-0.5-1.6-0.7-2.3-0.2-0.6-0.4-1.2-0.5-1.7-0.2-0.7-0.5-1.5-0.7-2.2l-0.6-1.8c-0.2-0.7-0.5-1.4-0.7-2.1l-0.6-1.8c-0.3-0.7-0.5-1.4-0.8-2.2-0.2-0.6-0.4-1.1-0.6-1.7-0.3-0.8-0.6-1.5-0.9-2.3-0.2-0.5-0.4-1-0.6-1.6-0.5-1.2-1-2.4-1.4-3.6-0.2-0.5-0.4-0.9-0.6-1.4-0.3-0.8-0.7-1.6-1-2.5-0.2-0.6-0.5-1.1-0.7-1.7l-0.9-2.1c-0.3-0.6-0.5-1.2-0.8-1.7-0.3-0.7-0.6-1.3-0.9-2-0.3-0.6-0.6-1.2-0.8-1.8-0.3-0.7-0.6-1.3-1-2-0.3-0.6-0.6-1.2-0.9-1.7-0.3-0.7-0.7-1.3-1-2-0.3-0.6-0.6-1.1-0.9-1.7-0.4-0.7-0.8-1.4-1.1-2.1-0.3-0.5-0.5-1-0.8-1.5-0.6-1.2-1.3-2.3-1.9-3.5 1.2-1.5 2.4-2.9 3.6-4.4 5.2-6.1 10.7-11.8 16.6-17.1 26.9-24.4 60.6-40.7 96.4-46.4 6.2-1 12.5-1.7 18.9-2.1 3.6-0.2 7.2-0.3 10.8-0.3 103.3 0 187.4 84 187.4 187.3-0.3 103.9-84.3 188-187.6 188z" p-id="6183" fill="#367FFA"></path></svg>