<svg t="1639725382895" class="icon" viewBox="0 0 1024 1024" version="1.1" xmlns="http://www.w3.org/2000/svg" p-id="5806" width="200" height="200"><path d="M512 1024A512 512 0 1 1 512 0a512 512 0 0 1 0 1024z m0-78.774857A433.225143 433.225143 0 1 0 512 78.774857a433.225143 433.225143 0 0 0 0 866.450286z m0-393.874286h236.251429a39.424 39.424 0 0 1 0 78.774857H472.649143a39.350857 39.350857 0 0 1-39.350857-39.350857V236.251429A39.350857 39.350857 0 1 1 512 236.251429v315.026285z" p-id="5807" fill="#367FFA"></path></svg>