<svg t="1639560860370" class="icon" viewBox="0 0 1024 1024" version="1.1" xmlns="http://www.w3.org/2000/svg" p-id="2313" width="200" height="200"><path d="M707.913 297.539C615.092 344.84 537.137 443.46 530.525 545.512c24.286 11.932 76.878 30.175 109.006 31.467 49.611 2 118.355-17.503 161.276-54.36 25.275-21.706 68.421-74.701 79.337-130.48 11.629-59.412-10.044-121.44-18.306-133.948-16.93-6.359-100.706 12.229-153.925 39.348z" fill="#367FFA" p-id="2314"></path><path d="M835.241 189.759C788.967 143.484 727.441 118 662 118c-56.459 0-110.473 19.218-153.981 54.447C464.55 137.177 410.752 118 354 118c-65.442 0-126.967 25.484-173.241 71.759S109 297.558 109 363s25.484 126.967 71.759 173.241S288.558 608 354 608c56.752 0 110.55-19.178 154.019-54.446C551.527 588.782 605.541 608 662 608c65.441 0 126.967-25.484 173.241-71.759S907 428.442 907 363s-25.484-126.967-71.759-173.241zM149 363c0-113.037 91.963-205 205-205s205 91.963 205 205-91.963 205-205 205-205-91.963-205-205z m513 205c-45.502 0-89.103-14.92-124.781-42.358C577.156 480.77 599 423.567 599 363s-21.844-117.77-61.781-162.642C572.897 172.92 616.498 158 662 158c113.037 0 205 91.963 205 205s-91.963 205-205 205z" fill="#367FFA" p-id="2315"></path><path d="M915.575 666.105c-2.825-10.678-13.773-17.043-24.451-14.217L762.238 686l-27.552-99.911c-2.936-10.649-13.951-16.899-24.597-13.964-10.648 2.937-16.9 13.949-13.964 24.597l27.441 99.513L602.79 728.2c-10.678 2.826-17.043 13.773-14.217 24.451 2.372 8.964 10.466 14.888 19.321 14.888 1.693 0 3.416-0.217 5.13-0.671l121.178-32.071 37.259 135.114c2.445 8.87 10.494 14.688 19.269 14.688 1.76 0 3.55-0.234 5.328-0.725 10.648-2.937 16.9-13.949 13.964-24.597l-37.149-134.716 128.486-34.006c10.677-2.825 17.042-13.772 14.216-24.45zM397.918 736.267l-136.202 78.396 57.821-220.096-38.688-10.164-58.083 221.092-80.329-137.126c-5.584-9.53-17.837-12.732-27.366-7.147-9.531 5.583-12.731 17.835-7.147 27.366l102.717 175.345c0.344 0.852 0.728 1.695 1.199 2.514 3.044 5.289 8.14 8.655 13.704 9.686a19.91 19.91 0 0 0 14.048-2.348 20.194 20.194 0 0 0 2.124-1.456l176.157-101.393c9.573-5.511 12.867-17.737 7.357-27.311-5.512-9.575-17.74-12.87-27.312-7.358z" fill="#367FFA" p-id="2316"></path></svg>