<svg t="1638262117604" class="icon" viewBox="0 0 1024 1024" version="1.1" xmlns="http://www.w3.org/2000/svg" p-id="5589" width="200" height="200"><path d="M512.3072 788.7872c-127.6928 0-251.2896-33.28-347.8528-93.7984C70.2464 635.904 16.2816 559.4112 16.2816 484.9664c0-74.4448 54.0672-150.9376 148.2752-210.0224 96.5632-60.5184 220.16-93.7984 347.8528-93.7984s251.2896 33.28 347.8528 93.7984c94.208 58.9824 148.2752 135.5776 148.2752 210.0224 0 74.4448-54.0672 150.9376-148.2752 210.0224C763.5968 755.5072 640.1024 788.7872 512.3072 788.7872zM512.3072 214.528c-121.5488 0-238.7968 31.5392-330.1376 88.7808C99.2256 355.328 49.664 423.2192 49.664 484.9664c0 61.7472 49.5616 129.6384 132.608 181.6576 91.3408 57.2416 208.5888 88.7808 330.1376 88.7808s238.7968-31.5392 330.1376-88.7808c83.0464-52.0192 132.608-119.9104 132.608-181.6576 0-61.7472-49.5616-129.6384-132.608-181.6576C751.104 246.0672 633.856 214.528 512.3072 214.528z" p-id="5590" fill="#8a8a8a"></path><path d="M512.3072 650.0352c-90.9312 0-164.9664-74.0352-164.9664-164.9664s74.0352-164.9664 164.9664-164.9664c90.9312 0 164.9664 74.0352 164.9664 164.9664S603.3408 650.0352 512.3072 650.0352zM512.3072 354.5088c-71.9872 0-130.56 58.5728-130.56 130.56 0 71.9872 58.5728 130.56 130.56 130.56 71.9872 0 130.56-58.5728 130.56-130.56C642.8672 412.9792 584.2944 354.5088 512.3072 354.5088z" p-id="5591" fill="#8a8a8a"></path><path d="M427.6224 506.2656c-9.3184 0-16.9984-7.4752-17.2032-16.7936-0.7168-29.696 11.776-57.856 34.304-77.312 7.168-6.2464 18.1248-5.4272 24.2688 1.7408 6.2464 7.168 5.4272 18.1248-1.7408 24.2688-14.6432 12.5952-22.8352 31.0272-22.3232 50.3808 0.2048 9.5232-7.2704 17.408-16.7936 17.6128C427.8272 506.2656 427.7248 506.2656 427.6224 506.2656z" p-id="5592" fill="#8a8a8a"></path></svg>