<svg t="1637805423344" class="icon" viewBox="0 0 1024 1024" version="1.1" xmlns="http://www.w3.org/2000/svg" p-id="2286" width="200" height="200"><path d="M557.312 525.248l265.28-263.904c12.544-12.48 12.608-32.704 0.128-45.248-12.512-12.576-32.704-12.608-45.248-0.128l-265.344 263.936-263.04-263.84c-12.448-12.48-32.704-12.544-45.248-0.064-12.512 12.48-12.544 32.736-0.064 45.28l262.976 263.776-265.152 263.744c-12.544 12.48-12.608 32.704-0.128 45.248 6.24 6.272 14.464 9.44 22.688 9.44 8.16 0 16.32-3.104 22.56-9.312l265.216-263.808 265.44 266.24c6.24 6.272 14.432 9.408 22.656 9.408 8.192 0 16.352-3.136 22.592-9.344 12.512-12.48 12.544-32.704 0.064-45.248l-265.376-266.176z" p-id="2287" fill="#8a8a8a"></path></svg>