<?xml version="1.0" standalone="no"?><!DOCTYPE svg PUBLIC "-//W3C//DTD SVG 1.1//EN" "http://www.w3.org/Graphics/SVG/1.1/DTD/svg11.dtd"><svg t="1636334442334" class="icon" viewBox="0 0 1024 1024" version="1.1" xmlns="http://www.w3.org/2000/svg" p-id="855" xmlns:xlink="http://www.w3.org/1999/xlink" width="200" height="200"><defs><style type="text/css"></style></defs><path d="M512 153.6c225.5872 0 512 153.6 512 358.4s-286.4128 358.4-512 358.4-512-153.6-512-358.4 286.4128-358.4 512-358.4z m0 76.8C311.9616 230.4 76.8 358.4 76.8 512s235.1616 281.6 435.2 281.6c204.8 0 435.2-128 435.2-281.6S712.0384 230.4 512 230.4zM512 307.2a204.8 204.8 0 1 1 0 409.6 204.8 204.8 0 0 1 0-409.6z m0 81.92a122.88 122.88 0 1 0 0 245.76 122.88 122.88 0 0 0 0-245.76z" p-id="856" fill="#8a8a8a"></path></svg>