<?xml version="1.0" standalone="no"?><!DOCTYPE svg PUBLIC "-//W3C//DTD SVG 1.1//EN" "http://www.w3.org/Graphics/SVG/1.1/DTD/svg11.dtd"><svg t="1636334450985" class="icon" viewBox="0 0 1024 1024" version="1.1" xmlns="http://www.w3.org/2000/svg" p-id="1025" xmlns:xlink="http://www.w3.org/1999/xlink" width="200" height="200"><defs><style type="text/css"></style></defs><path d="M1010.333696 266.2912a38.4 38.4 0 0 1 1.9456 54.272A1208.4736 1208.4736 0 0 1 908.752896 419.84l-11.776 9.8304a38.2976 38.2976 0 0 1 10.0864 11.4176l89.6 155.1872a38.4 38.4 0 0 1-66.5088 38.4l-89.6-155.1872a38.7072 38.7072 0 0 1-2.56-5.3248 682.6496 682.6496 0 0 1-147.3024 78.848l43.9296 163.84a38.4 38.4 0 0 1-74.1888 19.9168l-43.3152-161.5872a481.5872 481.5872 0 0 1-159.232 8.9088l-40.96 152.6784A38.4 38.4 0 1 1 342.736896 716.8l39.424-147.2512c-55.1424-14.9504-110.2336-39.5264-165.1712-73.728l-80.0768 138.752a38.4 38.4 0 0 1-66.5088-38.4L153.655296 452.096A1130.8544 1130.8544 0 0 1 10.244096 320.512 38.4 38.4 0 1 1 66.564096 268.288c299.4688 322.56 588.8512 322.56 889.4976-0.0512a38.4 38.4 0 0 1 54.272-1.9456z" p-id="1026" fill="#8a8a8a"></path></svg>