<svg xmlns="http://www.w3.org/2000/svg" width="19" height="20" viewBox="0 0 19 20">
            <g id="Iconly_Bulk_Setting" data-name="Iconly/Bulk/Setting" transform="translate(-2.5 -2)">
              <g id="Setting" transform="translate(2.5 2)">
                <path id="Path_34199" d="M17.978,11.716h0a1.954,1.954,0,0,1-.739-2.667,1.982,1.982,0,0,1,.739-.729h0a1.99,1.99,0,0,0,.952-1.2,1.937,1.937,0,0,0-.2-1.507h0L18.06,4.444a2.029,2.029,0,0,0-1.236-.927,2.083,2.083,0,0,0-1.547.2h0a2.092,2.092,0,0,1-1.551.2,2.038,2.038,0,0,1-1.241-.928,2,2,0,0,1-.274-1h0A1.956,1.956,0,0,0,11.618.584,2.063,2.063,0,0,0,10.175,0H8.834A2.019,2.019,0,0,0,6.789,1.982,1.973,1.973,0,0,1,5.774,3.708a2.082,2.082,0,0,1-2.042,0h0a2.082,2.082,0,0,0-1.57-.212,2.028,2.028,0,0,0-1.25.95h0L.273,5.564a1.963,1.963,0,0,0,.748,2.711h0A1.963,1.963,0,0,1,1.761,11a1.892,1.892,0,0,1-.739.72h0a1.99,1.99,0,0,0-.952,1.2,1.937,1.937,0,0,0,.2,1.507h0l.639,1.138a2.075,2.075,0,0,0,2.793.72h0a2.084,2.084,0,0,1,2.784.729,1.925,1.925,0,0,1,.274,1h0a1.965,1.965,0,0,0,.605,1.414A2.073,2.073,0,0,0,8.825,20h1.342a2.018,2.018,0,0,0,2.044-1.991h0A1.955,1.955,0,0,1,12.8,16.59,2.063,2.063,0,0,1,14.246,16a2.04,2.04,0,0,1,1.022.267h0a2.074,2.074,0,0,0,2.784-.729l.675-1.138A1.954,1.954,0,0,0,17.978,11.716Z" fill="#c7cad5" opacity="0.4"></path>
                <circle id="Ellipse_745" cx="2.5" cy="2.5" r="2.5" transform="translate(7 7.5)" fill="#c7cad5"></circle>
              </g>
            </g>
          </svg>